<?xml version="1.0" encoding="utf-8"?>
<!-- Generator: Adobe Illustrator 16.0.0, SVG Export Plug-In . SVG Version: 6.00 Build 0)  -->
<!DOCTYPE svg PUBLIC "-//W3C//DTD SVG 1.1//EN" "http://www.w3.org/Graphics/SVG/1.1/DTD/svg11.dtd">
<svg version="1.1" id="Layer_1" xmlns="http://www.w3.org/2000/svg" xmlns:xlink="http://www.w3.org/1999/xlink" x="0px" y="0px"
	 width="33.016px" height="33.016px" viewBox="0 0 33.016 33.016" enable-background="new 0 0 33.016 33.016" xml:space="preserve">
<path fill="#33A8E0" d="M29.288,0H3.729C1.673,0,0,1.673,0,3.729v25.557c0,2.056,1.673,3.729,3.729,3.729h25.559
	c2.055,0,3.729-1.674,3.729-3.729V3.729C33.016,1.673,31.342,0,29.288,0z M21.704,22.696c0.687,0.167,1.012,0.663,1.047,1.379H20.36
	c-0.277,0-0.502-0.229-0.502-0.511c0-0.004,0.001-0.009,0.001-0.013h-0.001c0,0-0.102-2.222-0.111-2.56
	c-0.033,0.131-1.139,3.338-4.837,3.59c-3.429,0.188-5.137-2.415-5.293-2.806c-0.343,0.226-0.289,0.92-0.289,0.92
	c0.641,0.131,1.01,0.663,1.1,1.375l-2.432,0.004c-0.277,0-0.502-0.228-0.502-0.511c0,0-0.189-3.209-0.055-6.214
	c0.145-3.268,0.89-4.036,1.056-4.259c0.231,2.665,2.163,3.801,4.238,3.801c2.624,0,4.75-2.162,4.75-4.828
	c0-1.475-0.652-2.795-1.677-3.68c-0.01-0.01-0.018-0.018-0.021-0.023c2.01-0.551,2.703,0.84,2.703,0.84
	c0.704-1.298,1.889-0.996,1.889-0.996c-0.439,1.74-0.381,1.669-0.381,1.669c1.369-0.1,2.201,0.995,2.201,0.995
	c3.087-0.95,4.131-1.276,4.131-1.276c0.881,2.684-0.688,5.049-2.308,5.713c-1.988,0.815-2.257,1.98-2.398,3.416
	C21.547,19.457,21.463,20.387,21.704,22.696z"/>
</svg>
