<?xml version="1.0" encoding="utf-8"?>
<!-- Generator: Adobe Illustrator 16.0.0, SVG Export Plug-In . SVG Version: 6.00 Build 0)  -->
<!DOCTYPE svg PUBLIC "-//W3C//DTD SVG 1.1//EN" "http://www.w3.org/Graphics/SVG/1.1/DTD/svg11.dtd">
<svg version="1.1" id="Layer_1" xmlns="http://www.w3.org/2000/svg" xmlns:xlink="http://www.w3.org/1999/xlink" x="0px" y="0px"
	 width="19.03px" height="89.03px" viewBox="0 0 19.03 89.03" enable-background="new 0 0 19.03 89.03" xml:space="preserve">
<g>
	<g>
		<path fill="#999999" d="M16.243,2.787C14.446,0.99,12.057,0,9.515,0S4.584,0.99,2.787,2.787C0.99,4.584,0,6.974,0,9.515
			s0.99,4.931,2.787,6.728c1.797,1.798,4.187,2.787,6.728,2.787s4.931-0.989,6.728-2.787c1.797-1.797,2.787-4.187,2.787-6.728
			S18.04,4.584,16.243,2.787z M9.515,1.048c4.669,0,8.468,3.798,8.468,8.467c0,0.52-0.054,1.026-0.144,1.521
			c-0.632-0.042-1.364-0.067-2.248-0.06c0.143-0.527,0.22-1.15,0.235-1.889c-0.004-2.001-0.963-2.709-1.146-3.042
			c0.271-1.516-0.045-2.205-0.192-2.442C13.946,3.41,12.601,4.1,11.864,4.586c-1.198-0.351-3.731-0.316-4.681,0.09
			c-1.753-1.255-2.68-1.063-2.68-1.063s-0.6,1.074-0.158,2.646C3.768,6.995,3.338,7.515,3.338,8.894
			c0,0.777,0.091,1.472,0.298,2.079c-0.499-0.001-1.491,0.035-2.438,0.104c-0.095-0.507-0.15-1.027-0.15-1.562
			C1.048,4.846,4.846,1.048,9.515,1.048z M17.819,11.168c-0.033,0.168-0.079,0.331-0.122,0.495c-0.37-0.045-0.727-0.082-1.045-0.105
			c-0.527-0.039-0.963-0.055-1.233-0.064c0.05-0.121,0.095-0.248,0.135-0.381c0.397-0.004,0.766-0.002,1.108,0.006
			C17.086,11.127,17.467,11.146,17.819,11.168z M8.344,13.29c-0.123-0.004-0.243-0.012-0.361-0.022
			c-1.773-0.155-3.032-0.956-3.032-2.752c0-0.68,0.459-2.164,2.314-2.164c0.184,0,1.383,0.113,2.541,0.113
			c1.028,0,2.068-0.113,2.202-0.113c1.821,0,2.283,1.289,2.283,2.284c0,1.357-0.682,2.34-2.381,2.595
			c-0.208,0.031-0.432,0.052-0.672,0.06C10.214,13.327,9.188,13.323,8.344,13.29z M3.85,11.489c-1.016,0.026-1.831,0.108-2.506,0.21
			c-0.043-0.162-0.091-0.322-0.125-0.488c0.972-0.07,1.991-0.106,2.466-0.104C3.734,11.239,3.789,11.366,3.85,11.489z M1.378,11.832
			c0.683-0.103,1.508-0.185,2.542-0.209c0.653,1.185,1.906,1.927,4.014,2.14c0.019,0.002,0.038,0.004,0.058,0.006
			c-0.306,0.232-0.673,0.673-0.724,1.182c-0.385,0.25-1.158,0.331-1.759,0.142c-0.842-0.266-1.165-1.934-2.426-1.696
			c-0.273,0.052-0.219,0.232,0.017,0.385c0.384,0.248,0.746,0.561,1.025,1.223c0.214,0.509,0.665,1.418,2.09,1.418
			c0.565,0,0.962-0.068,0.962-0.068s0.006,0.721,0.009,1.298C4.385,16.847,2.178,14.636,1.378,11.832z M12.184,17.546
			c0.004-0.273,0.008-0.674,0.008-1.357c0-1.459-0.195-1.998-0.878-2.428c0.229-0.023,0.45-0.051,0.661-0.082
			c1.723-0.259,2.818-0.808,3.385-2.051c0.413,0.013,1.295,0.044,2.303,0.166C16.905,14.501,14.837,16.662,12.184,17.546z"/>
	</g>
</g>
<g>
	<g>
		<path fill="#33A8E0" d="M16.243,72.787C14.446,70.99,12.057,70,9.515,70s-4.931,0.99-6.728,2.787C0.99,74.584,0,76.974,0,79.515
			s0.99,4.931,2.787,6.728c1.797,1.798,4.187,2.787,6.728,2.787s4.931-0.989,6.728-2.787c1.797-1.797,2.787-4.187,2.787-6.728
			S18.04,74.584,16.243,72.787z M9.515,71.048c4.669,0,8.468,3.798,8.468,8.467c0,0.52-0.054,1.026-0.145,1.521
			c-0.632-0.042-1.364-0.067-2.247-0.06c0.143-0.527,0.22-1.15,0.235-1.889c-0.004-2.001-0.963-2.709-1.146-3.042
			c0.271-1.516-0.045-2.205-0.192-2.442c-0.542-0.193-1.888,0.497-2.624,0.983c-1.198-0.351-3.731-0.316-4.681,0.09
			c-1.753-1.255-2.68-1.063-2.68-1.063s-0.6,1.074-0.158,2.646c-0.577,0.735-1.007,1.255-1.007,2.634
			c0,0.777,0.091,1.472,0.298,2.079c-0.499-0.001-1.491,0.035-2.438,0.104c-0.095-0.507-0.15-1.027-0.15-1.562
			C1.048,74.846,4.846,71.048,9.515,71.048z M17.818,81.168c-0.033,0.168-0.078,0.331-0.122,0.495
			c-0.369-0.045-0.727-0.082-1.045-0.105c-0.527-0.039-0.963-0.055-1.233-0.064c0.05-0.121,0.095-0.248,0.135-0.381
			c0.397-0.004,0.766-0.002,1.108,0.006C17.086,81.127,17.468,81.146,17.818,81.168z M8.344,83.29
			c-0.123-0.004-0.243-0.012-0.361-0.022c-1.773-0.155-3.032-0.956-3.032-2.752c0-0.68,0.459-2.164,2.314-2.164
			c0.184,0,1.383,0.113,2.541,0.113c1.028,0,2.068-0.113,2.202-0.113c1.821,0,2.283,1.289,2.283,2.284
			c0,1.357-0.682,2.34-2.381,2.595c-0.208,0.031-0.432,0.052-0.672,0.06C10.214,83.327,9.188,83.323,8.344,83.29z M3.85,81.489
			c-1.016,0.026-1.831,0.108-2.506,0.21c-0.043-0.162-0.091-0.322-0.125-0.488c0.972-0.07,1.991-0.106,2.466-0.104
			C3.734,81.239,3.789,81.366,3.85,81.489z M1.378,81.832c0.683-0.103,1.508-0.185,2.542-0.209c0.653,1.185,1.906,1.927,4.014,2.14
			c0.019,0.002,0.038,0.004,0.058,0.006c-0.306,0.232-0.673,0.673-0.724,1.182c-0.385,0.25-1.158,0.331-1.759,0.142
			c-0.842-0.266-1.165-1.934-2.426-1.696c-0.273,0.052-0.219,0.232,0.017,0.385c0.384,0.248,0.746,0.561,1.025,1.223
			c0.214,0.509,0.665,1.418,2.09,1.418c0.565,0,0.962-0.068,0.962-0.068s0.006,0.721,0.009,1.298
			C4.385,86.847,2.178,84.636,1.378,81.832z M12.184,87.546c0.005-0.273,0.009-0.674,0.009-1.357c0-1.459-0.195-1.998-0.878-2.428
			c0.229-0.023,0.45-0.051,0.661-0.082c1.723-0.259,2.818-0.808,3.385-2.051c0.413,0.013,1.295,0.044,2.303,0.166
			C16.904,84.501,14.837,86.662,12.184,87.546z"/>
	</g>
</g>
</svg>
