<?xml version="1.0" encoding="utf-8"?>
<!-- Generator: Adobe Illustrator 16.0.0, SVG Export Plug-In . SVG Version: 6.00 Build 0)  -->
<!DOCTYPE svg PUBLIC "-//W3C//DTD SVG 1.1//EN" "http://www.w3.org/Graphics/SVG/1.1/DTD/svg11.dtd">
<svg version="1.1" id="Layer_1" xmlns="http://www.w3.org/2000/svg" xmlns:xlink="http://www.w3.org/1999/xlink" x="0px" y="0px"
	 width="6.035px" height="26.035px" viewBox="0 0 6.035 26.035" enable-background="new 0 0 6.035 26.035" xml:space="preserve">
<path fill="#FFFFFF" d="M5.886,1.261c0.197-0.197,0.197-0.519,0-0.715L5.488,0.147c-0.197-0.196-0.518-0.196-0.715,0L3.374,1.546
	c-0.197,0.197-0.518,0.197-0.714,0L1.261,0.147c-0.196-0.196-0.518-0.196-0.715,0L0.147,0.546c-0.196,0.196-0.196,0.518,0,0.715
	L1.546,2.66c0.196,0.197,0.196,0.519,0,0.715L0.147,4.773c-0.196,0.196-0.196,0.518,0,0.715l0.399,0.398
	c0.196,0.197,0.518,0.197,0.714,0L2.66,4.488c0.197-0.197,0.518-0.197,0.714,0l1.399,1.398c0.196,0.197,0.518,0.197,0.715,0
	l0.398-0.398c0.197-0.197,0.197-0.519,0-0.715L4.488,3.375c-0.197-0.196-0.197-0.518,0-0.715L5.886,1.261z"/>
<path fill="#999999" d="M5.886,21.262c0.197-0.197,0.197-0.52,0-0.715l-0.398-0.399c-0.197-0.196-0.518-0.196-0.715,0l-1.399,1.399
	c-0.197,0.196-0.518,0.196-0.714,0l-1.399-1.399c-0.196-0.196-0.518-0.196-0.715,0l-0.398,0.399c-0.196,0.195-0.196,0.518,0,0.715
	l1.399,1.398c0.196,0.196,0.196,0.518,0,0.715l-1.399,1.398c-0.196,0.196-0.196,0.518,0,0.715l0.399,0.398
	c0.196,0.197,0.518,0.197,0.714,0l1.399-1.398c0.197-0.197,0.518-0.197,0.714,0l1.399,1.398c0.196,0.197,0.518,0.197,0.715,0
	l0.398-0.398c0.197-0.197,0.197-0.519,0-0.715l-1.398-1.398c-0.197-0.197-0.197-0.519,0-0.715L5.886,21.262z"/>
</svg>
